<svg xmlns="http://www.w3.org/2000/svg" viewBox="0 0 2560 1440" role="img" aria-labelledby="title desc">
  <title id="title">天書小說 YouTube 頻道橫幅</title>
  <desc id="desc">深色 AI 原創小說頻道橫幅，中心安全區含品牌圖示、頻道名稱與每日更新定位。</desc>
  <defs>
    <linearGradient id="bannerBg" x1="318" y1="86" x2="2258" y2="1327" gradientUnits="userSpaceOnUse">
      <stop stop-color="#11131f"/>
      <stop offset=".48" stop-color="#060811"/>
      <stop offset="1" stop-color="#020307"/>
    </linearGradient>
    <linearGradient id="gold" x1="846" y1="410" x2="1540" y2="942" gradientUnits="userSpaceOnUse">
      <stop stop-color="#fff4bd"/>
      <stop offset=".5" stop-color="#ffd37b"/>
      <stop offset="1" stop-color="#d88425"/>
    </linearGradient>
    <linearGradient id="red" x1="1654" y1="520" x2="1925" y2="789" gradientUnits="userSpaceOnUse">
      <stop stop-color="#ff7b72"/>
      <stop offset="1" stop-color="#ff2f4c"/>
    </linearGradient>
    <filter id="glow" x="-25%" y="-25%" width="150%" height="150%">
      <feGaussianBlur stdDeviation="24" result="blur"/>
      <feColorMatrix in="blur" type="matrix" values="1 0 0 0 1 0 1 0 0 .76 0 0 1 0 .34 0 0 0 .42 0"/>
      <feMerge>
        <feMergeNode/>
        <feMergeNode in="SourceGraphic"/>
      </feMerge>
    </filter>
  </defs>

  <rect width="2560" height="1440" fill="url(#bannerBg)"/>
  <path d="M0 1037c330-103 646-155 948-155 376 0 620 84 969 84 210 0 384-31 563-82v556H0Z" fill="#0c101b"/>
  <path d="M240 298h512M1790 298h430M244 1114h684M1562 1114h758" stroke="#242b3d" stroke-width="18" stroke-linecap="round"/>
  <path d="M360 388h218M2002 388h218M422 1017h386M1645 1017h602" stroke="#343c53" stroke-width="8" stroke-linecap="round" opacity=".62"/>

  <g opacity=".74">
    <rect x="226" y="562" width="220" height="306" rx="24" fill="#142a4d" stroke="#3e5177" stroke-width="4"/>
    <rect x="506" y="520" width="220" height="306" rx="24" fill="#2b1947" stroke="#5e477b" stroke-width="4"/>
    <rect x="2012" y="562" width="220" height="306" rx="24" fill="#172f2b" stroke="#3b645f" stroke-width="4"/>
    <rect x="1733" y="520" width="220" height="306" rx="24" fill="#3b171f" stroke="#6a3f45" stroke-width="4"/>
    <path d="M270 782h116M550 740h116M1777 740h116M2056 782h116" stroke="#fff4c9" stroke-width="18" stroke-linecap="round"/>
  </g>

  <g filter="url(#glow)">
    <rect x="814" y="410" width="276" height="276" rx="62" fill="#060811" stroke="url(#gold)" stroke-width="10"/>
    <path d="M952 477l22 54 58 5-44 38 13 58-49-30-50 30 14-58-45-38 59-5 22-54Z" fill="url(#gold)"/>
    <path d="M868 552c54 0 95 12 132 39v108c-35-26-77-39-132-39-14 0-25-11-25-25v-88c0-14 11-25 25-25ZM1036 552c-54 0-96 12-132 39v108c35-26 77-39 132-39 14 0 25-11 25-25v-88c0-14-11-25-25-25Z" fill="url(#gold)"/>
    <text x="1180" y="532" fill="#fff2c2" font-family="Noto Sans TC, PingFang TC, Microsoft JhengHei, sans-serif" font-size="112" font-weight="900" letter-spacing="0">天書小說 AI 劇場</text>
    <text x="1184" y="626" fill="#b9becd" font-family="Noto Sans TC, PingFang TC, Microsoft JhengHei, sans-serif" font-size="42" font-weight="800" letter-spacing="0">每日 AI 原創連載 | 爆款鉤子 | 有聲短劇</text>
    <rect x="1184" y="704" width="534" height="82" rx="41" fill="#151925" stroke="#3a4052" stroke-width="4"/>
    <text x="1242" y="758" fill="#ffd37b" font-family="Noto Sans TC, PingFang TC, Microsoft JhengHei, sans-serif" font-size="38" font-weight="900">@TianshuNovel</text>
    <g transform="translate(1800 704)">
      <rect width="210" height="82" rx="41" fill="url(#red)"/>
      <path d="M88 25v32l31-16Z" fill="#fff"/>
    </g>
  </g>
</svg>
